<?xml version="1.0" encoding="UTF-8" standalone="no"?>
<!DOCTYPE svg PUBLIC "-//W3C//DTD SVG 1.1//EN" "http://www.w3.org/Graphics/SVG/1.1/DTD/svg11.dtd">
<svg width="100%" height="100%" viewBox="0 0 2481 882" version="1.1" xmlns="http://www.w3.org/2000/svg" xmlns:xlink="http://www.w3.org/1999/xlink" xml:space="preserve" xmlns:serif="http://www.serif.com/" style="fill-rule:evenodd;clip-rule:evenodd;stroke-linejoin:round;stroke-miterlimit:2;">
    <g transform="matrix(1,0,0,1,-2646,0)">
        <g id="Artboard1" transform="matrix(1,0,0,0.251398,2646,0)">
            <rect x="0" y="0" width="2480.32" height="3507.87" style="fill:none;"/>
            <g transform="matrix(1,0,0,1,-9.09495e-13,101.316)">
                <g transform="matrix(0.719123,0,0,2.86049,-50.3283,512.011)">
                    <path d="M3408.78,124.899C3408.78,151.016 3401.42,175.795 3386.68,199.233C3371.95,222.672 3352.87,241.423 3329.43,255.486C3305.99,269.549 3281.55,276.581 3256.1,276.581C3229.31,276.581 3204.53,269.884 3181.76,256.491C3158.99,243.097 3140.75,225.016 3127.02,202.247C3113.29,179.478 3106.43,154.365 3106.43,126.908C3106.43,100.121 3113.12,75.176 3126.52,52.072C3139.91,28.968 3157.99,10.552 3180.76,-3.177C3203.53,-16.905 3228.64,-23.769 3256.1,-23.769C3282.89,-23.769 3308,-17.24 3331.44,-4.181C3354.88,8.877 3373.63,26.791 3387.69,49.56C3401.75,72.329 3408.78,97.442 3408.78,124.899ZM3310.34,121.886C3310.34,106.483 3304.65,93.592 3293.26,83.212C3281.88,72.832 3268.82,67.642 3254.09,67.642C3237.35,67.642 3223.95,72.999 3213.91,83.714C3203.86,94.429 3198.84,107.487 3198.84,122.89C3198.84,138.293 3204.03,151.519 3214.41,162.568C3224.79,173.618 3238.02,179.143 3254.09,179.143C3268.82,179.143 3281.88,173.451 3293.26,162.066C3304.65,150.682 3310.34,137.288 3310.34,121.886ZM3143.59,-71.986C3143.59,-46.538 3134.22,-24.774 3115.47,-6.693C3096.72,11.389 3074.28,20.429 3048.16,20.429C3022.72,20.429 3000.78,11.221 2982.37,-7.195C2963.95,-25.611 2954.74,-47.878 2954.74,-73.995C2954.74,-100.112 2963.78,-122.547 2981.87,-141.298C2999.95,-160.049 3022.05,-169.424 3048.16,-169.424C3074.95,-169.424 3097.55,-160.216 3115.97,-141.8C3134.39,-123.384 3143.59,-100.112 3143.59,-71.986ZM3084.33,-80.022C3082.99,-89.398 3078.8,-97.099 3071.77,-103.126C3064.74,-109.153 3056.53,-112.167 3047.16,-112.167C3037.11,-112.167 3028.74,-108.651 3022.05,-101.619C3015.35,-94.588 3012,-86.049 3012,-76.004C3012,-65.959 3015.52,-57.421 3022.55,-50.389C3029.58,-43.357 3038.12,-39.842 3048.16,-39.842C3058.21,-39.842 3066.91,-44.194 3074.28,-52.9C3081.65,-61.606 3085,-70.647 3084.33,-80.022Z" style="fill:rgb(171,7,68);"/>
                </g>
                <g transform="matrix(0.719123,0,0,2.86049,-50.3283,544.286)">
                    <path d="M222.461,934.539C211.076,934.539 201.198,930.353 192.827,921.982C184.456,913.611 180.271,903.064 180.271,890.34L180.271,275.576C180.271,262.853 184.456,252.138 192.827,243.432C201.198,234.726 211.076,230.373 222.461,230.373L358.07,230.373C369.455,230.373 379.332,234.726 387.703,243.432C396.074,252.138 400.26,262.853 400.26,275.576L400.26,725.6L676.502,725.6C689.226,725.6 700.108,729.618 709.149,737.654C718.189,745.69 722.709,755.735 722.709,767.789L722.709,894.358C722.709,905.743 718.189,915.453 709.149,923.489C700.108,931.525 689.226,935.543 676.502,935.543L248.578,935.543L222.461,934.539ZM828.184,612.089L827.179,262.518C827.179,242.427 838.564,232.382 861.333,232.382L992.924,232.382C1006.32,232.382 1016.7,235.061 1024.06,240.418C1031.43,245.776 1035.11,253.142 1035.11,262.518L1039.13,589.99C1039.8,633.519 1051.69,667.84 1074.79,692.953C1097.9,718.066 1129.2,730.622 1168.71,730.622C1246.4,730.622 1285.24,686.423 1285.24,598.026L1287.25,264.527C1287.25,255.821 1291.43,248.287 1299.8,241.925C1308.17,235.563 1318.05,232.382 1329.44,232.382L1463.04,232.382C1475.76,232.382 1485.64,235.228 1492.67,240.921C1499.7,246.613 1502.88,254.482 1502.21,264.527L1502.21,413.195C1502.21,505.611 1502.38,563.203 1502.72,585.972C1503.05,608.741 1503.22,620.795 1503.22,622.134C1503.89,676.378 1494.68,727.776 1475.59,776.328C1456.51,824.879 1422.02,865.395 1372.13,897.874C1322.24,930.353 1255.1,946.593 1170.72,946.593C1093.71,946.593 1029.59,930.856 978.359,899.381C927.128,867.906 889.292,826.888 864.848,776.328C840.405,725.767 828.184,671.021 828.184,612.089ZM1627.78,899.381L1627.78,267.54C1627.78,258.165 1631.29,249.961 1638.33,242.93C1645.36,235.898 1653.9,232.382 1663.94,232.382L1819.64,232.382C1826.34,232.382 1833.37,233.889 1840.74,236.903C1848.1,239.916 1853.12,243.097 1855.8,246.445L2042.64,451.367L2238.52,247.45C2246.56,240.084 2255.43,235.731 2265.14,234.391C2274.85,233.052 2286.41,232.382 2299.8,232.382L2435.41,232.382C2444.78,232.382 2452.99,235.898 2460.02,242.93C2467.05,249.961 2470.57,258.165 2470.57,267.54L2470.57,899.381C2470.57,909.426 2467.22,917.964 2460.52,924.996C2453.83,932.028 2445.45,935.543 2435.41,935.543L2300.8,935.543C2290.76,935.543 2281.89,932.028 2274.18,924.996C2266.48,917.964 2262.63,909.426 2262.63,899.381L2262.63,529.719L2100.91,734.64C2087.51,752.721 2070.43,761.762 2049.68,761.762C2039.63,761.762 2030.09,759.586 2021.05,755.233C2012.01,750.88 2004.81,745.02 1999.45,737.654L1833.7,529.719L1834.71,899.381C1834.71,909.426 1831.36,917.964 1824.66,924.996C1817.97,932.028 1809.6,935.543 1799.55,935.543L1663.94,935.543C1653.9,935.543 1645.36,931.86 1638.33,924.494C1631.29,917.127 1627.78,908.756 1627.78,899.381ZM2568.01,587.981C2568.01,521.683 2584.58,460.407 2617.73,404.154C2650.88,347.902 2695.58,303.201 2751.83,270.052C2808.08,236.903 2869.36,220.328 2935.66,220.328C3001.96,220.328 3063.4,236.903 3119.99,270.052C3176.57,303.201 3221.44,347.902 3254.59,404.154C3287.74,460.407 3304.32,521.683 3304.32,587.981C3304.32,654.279 3287.74,715.554 3254.59,771.807C3221.44,828.06 3176.57,872.761 3119.99,905.91C3063.4,939.059 3001.96,955.634 2935.66,955.634C2869.36,955.634 2808.08,939.059 2751.83,905.91C2695.58,872.761 2650.88,828.06 2617.73,771.807C2584.58,715.554 2568.01,654.279 2568.01,587.981ZM3092.36,578.94C3092.36,550.144 3085,523.692 3070.26,499.583C3055.53,475.475 3035.94,456.222 3011.5,441.824C2987.06,427.426 2960.77,420.227 2932.64,420.227C2903.18,420.227 2876.22,427.426 2851.78,441.824C2827.34,456.222 2808.08,475.475 2794.02,499.583C2779.96,523.692 2772.93,550.144 2772.93,578.94C2772.93,607.736 2779.96,634.356 2794.02,658.799C2808.08,683.242 2827.34,702.663 2851.78,717.061C2876.22,731.459 2903.18,738.658 2932.64,738.658C2960.77,738.658 2987.06,731.459 3011.5,717.061C3035.94,702.663 3055.53,683.242 3070.26,658.799C3085,634.356 3092.36,607.736 3092.36,578.94Z" style="fill:white;"/>
                </g>
            </g>
        </g>
    </g>
</svg>
