<?xml version="1.0" encoding="UTF-8" standalone="no"?>
<!DOCTYPE svg PUBLIC "-//W3C//DTD SVG 1.1//EN" "http://www.w3.org/Graphics/SVG/1.1/DTD/svg11.dtd">
<svg width="100%" height="100%" viewBox="0 0 2481 882" version="1.1" xmlns="http://www.w3.org/2000/svg" xmlns:xlink="http://www.w3.org/1999/xlink" xml:space="preserve" xmlns:serif="http://www.serif.com/" style="fill-rule:evenodd;clip-rule:evenodd;stroke-linejoin:round;stroke-miterlimit:2;">
    <g id="Artboard1" transform="matrix(1,0,0,0.251398,0,0)">
        <rect x="0" y="0" width="2480.32" height="3507.87" style="fill:none;"/>
        <g transform="matrix(0.719123,0,0,2.86049,-50.3283,512.011)">
            <g transform="matrix(1004.52,0,0,1004.52,120,935.543)">
                <path d="M0.102,-0.001C0.091,-0.001 0.081,-0.005 0.073,-0.014C0.064,-0.022 0.06,-0.032 0.06,-0.045L0.06,-0.657C0.06,-0.67 0.064,-0.68 0.073,-0.689C0.081,-0.698 0.091,-0.702 0.102,-0.702L0.237,-0.702C0.248,-0.702 0.258,-0.698 0.267,-0.689C0.275,-0.68 0.279,-0.67 0.279,-0.657L0.279,-0.209L0.554,-0.209C0.567,-0.209 0.578,-0.205 0.587,-0.197C0.596,-0.189 0.6,-0.179 0.6,-0.167L0.6,-0.041C0.6,-0.03 0.596,-0.02 0.587,-0.012C0.578,-0.004 0.567,-0 0.554,-0L0.128,-0L0.102,-0.001Z" style="fill:rgb(204,24,91);fill-rule:nonzero;"/>
            </g>
            <g transform="matrix(1004.52,0,0,1004.52,762.89,935.543)">
                <path d="M0.065,-0.322L0.064,-0.67C0.064,-0.69 0.075,-0.7 0.098,-0.7L0.229,-0.7C0.242,-0.7 0.253,-0.697 0.26,-0.692C0.267,-0.687 0.271,-0.679 0.271,-0.67L0.275,-0.344C0.276,-0.301 0.288,-0.267 0.311,-0.242C0.334,-0.217 0.365,-0.204 0.404,-0.204C0.481,-0.204 0.52,-0.248 0.52,-0.336L0.522,-0.668C0.522,-0.677 0.526,-0.684 0.535,-0.691C0.543,-0.697 0.553,-0.7 0.564,-0.7L0.697,-0.7C0.71,-0.7 0.72,-0.697 0.727,-0.692C0.733,-0.686 0.737,-0.678 0.736,-0.668L0.736,-0.52C0.736,-0.428 0.736,-0.371 0.737,-0.348C0.737,-0.325 0.737,-0.313 0.737,-0.312C0.738,-0.258 0.729,-0.207 0.71,-0.159C0.691,-0.11 0.656,-0.07 0.607,-0.038C0.557,-0.005 0.49,0.011 0.406,0.011C0.329,0.011 0.266,-0.005 0.215,-0.036C0.164,-0.067 0.126,-0.108 0.102,-0.159C0.077,-0.209 0.065,-0.263 0.065,-0.322Z" style="fill:rgb(204,24,91);fill-rule:nonzero;"/>
            </g>
            <g transform="matrix(1004.52,0,0,1004.52,1567.51,935.543)">
                <path d="M0.06,-0.036L0.06,-0.665C0.06,-0.674 0.064,-0.683 0.071,-0.69C0.078,-0.697 0.086,-0.7 0.096,-0.7L0.251,-0.7C0.258,-0.7 0.265,-0.699 0.272,-0.696C0.279,-0.693 0.284,-0.689 0.287,-0.686L0.473,-0.482L0.668,-0.685C0.676,-0.692 0.685,-0.697 0.695,-0.698C0.704,-0.699 0.716,-0.7 0.729,-0.7L0.864,-0.7C0.873,-0.7 0.881,-0.697 0.889,-0.69C0.896,-0.683 0.899,-0.674 0.899,-0.665L0.899,-0.036C0.899,-0.026 0.896,-0.018 0.889,-0.011C0.882,-0.004 0.874,-0 0.864,-0L0.73,-0C0.72,-0 0.711,-0.004 0.704,-0.011C0.696,-0.018 0.692,-0.026 0.692,-0.036L0.692,-0.404L0.531,-0.2C0.518,-0.182 0.501,-0.173 0.48,-0.173C0.47,-0.173 0.46,-0.175 0.452,-0.18C0.443,-0.184 0.435,-0.19 0.43,-0.197L0.265,-0.404L0.266,-0.036C0.266,-0.026 0.263,-0.018 0.256,-0.011C0.249,-0.004 0.241,-0 0.231,-0L0.096,-0C0.086,-0 0.078,-0.004 0.071,-0.011C0.064,-0.018 0.06,-0.027 0.06,-0.036Z" style="fill:rgb(204,24,91);fill-rule:nonzero;"/>
            </g>
            <g transform="matrix(1004.52,0,0,1004.52,2527.82,935.543)">
                <path d="M0.613,-1.003C0.613,-0.978 0.604,-0.956 0.585,-0.938C0.566,-0.92 0.544,-0.911 0.518,-0.911C0.493,-0.911 0.471,-0.92 0.453,-0.939C0.434,-0.957 0.425,-0.979 0.425,-1.005C0.425,-1.031 0.434,-1.053 0.452,-1.072C0.47,-1.091 0.492,-1.1 0.518,-1.1C0.545,-1.1 0.567,-1.091 0.586,-1.073C0.604,-1.054 0.613,-1.031 0.613,-1.003ZM0.554,-1.011C0.553,-1.02 0.549,-1.028 0.542,-1.034C0.535,-1.04 0.526,-1.043 0.517,-1.043C0.507,-1.043 0.499,-1.04 0.492,-1.033C0.485,-1.026 0.482,-1.017 0.482,-1.007C0.482,-0.997 0.486,-0.989 0.493,-0.982C0.5,-0.974 0.508,-0.971 0.518,-0.971C0.528,-0.971 0.537,-0.975 0.544,-0.984C0.551,-0.993 0.555,-1.002 0.554,-1.011ZM0.877,-0.807C0.877,-0.781 0.87,-0.756 0.855,-0.733C0.84,-0.71 0.821,-0.691 0.798,-0.677C0.775,-0.663 0.75,-0.656 0.725,-0.656C0.698,-0.656 0.674,-0.663 0.651,-0.676C0.628,-0.689 0.61,-0.707 0.597,-0.73C0.583,-0.753 0.576,-0.778 0.576,-0.805C0.576,-0.832 0.583,-0.857 0.596,-0.88C0.609,-0.903 0.627,-0.921 0.65,-0.935C0.673,-0.948 0.698,-0.955 0.725,-0.955C0.752,-0.955 0.777,-0.949 0.8,-0.936C0.823,-0.923 0.842,-0.905 0.856,-0.882C0.87,-0.859 0.877,-0.834 0.877,-0.807ZM0.779,-0.81C0.779,-0.825 0.773,-0.838 0.762,-0.849C0.751,-0.859 0.738,-0.864 0.723,-0.864C0.706,-0.864 0.693,-0.859 0.683,-0.848C0.673,-0.837 0.668,-0.824 0.668,-0.809C0.668,-0.794 0.673,-0.781 0.684,-0.77C0.694,-0.759 0.707,-0.753 0.723,-0.753C0.738,-0.753 0.751,-0.759 0.762,-0.77C0.773,-0.781 0.779,-0.795 0.779,-0.81ZM0.04,-0.346C0.04,-0.412 0.056,-0.473 0.09,-0.529C0.123,-0.585 0.167,-0.63 0.223,-0.663C0.279,-0.696 0.34,-0.712 0.406,-0.712C0.472,-0.712 0.533,-0.696 0.59,-0.663C0.646,-0.63 0.691,-0.585 0.724,-0.529C0.756,-0.473 0.773,-0.412 0.773,-0.346C0.773,-0.28 0.756,-0.219 0.724,-0.163C0.691,-0.107 0.646,-0.063 0.59,-0.03C0.533,0.003 0.472,0.02 0.406,0.02C0.34,0.02 0.279,0.003 0.223,-0.03C0.167,-0.063 0.123,-0.107 0.09,-0.163C0.056,-0.219 0.04,-0.28 0.04,-0.346ZM0.562,-0.355C0.562,-0.384 0.555,-0.41 0.54,-0.434C0.525,-0.458 0.506,-0.477 0.482,-0.492C0.457,-0.506 0.431,-0.513 0.403,-0.513C0.374,-0.513 0.347,-0.506 0.323,-0.492C0.298,-0.477 0.279,-0.458 0.265,-0.434C0.251,-0.41 0.244,-0.384 0.244,-0.355C0.244,-0.326 0.251,-0.3 0.265,-0.276C0.279,-0.251 0.298,-0.232 0.323,-0.218C0.347,-0.203 0.374,-0.196 0.403,-0.196C0.431,-0.196 0.457,-0.203 0.482,-0.218C0.506,-0.232 0.525,-0.251 0.54,-0.276C0.555,-0.3 0.562,-0.326 0.562,-0.355Z" style="fill:rgb(204,24,91);fill-rule:nonzero;"/>
            </g>
        </g>
    </g>
</svg>
