<?xml version="1.0" encoding="UTF-8" standalone="no"?>
<!DOCTYPE svg PUBLIC "-//W3C//DTD SVG 1.1//EN" "http://www.w3.org/Graphics/SVG/1.1/DTD/svg11.dtd">
<svg width="100%" height="100%" viewBox="0 0 2481 670" version="1.1" xmlns="http://www.w3.org/2000/svg" xmlns:xlink="http://www.w3.org/1999/xlink" xml:space="preserve" xmlns:serif="http://www.serif.com/" style="fill-rule:evenodd;clip-rule:evenodd;stroke-linejoin:round;stroke-miterlimit:2;">
    <g id="Artboard1" transform="matrix(1,0,0,0.190963,0,0)">
        <rect x="0" y="0" width="2480.32" height="3507.87" style="fill:none;"/>
        <g transform="matrix(0.828857,0,0,4.34041,-149.419,-780.699)">
            <g transform="matrix(1004.52,0,0,1004.52,120,935.543)">
                <path d="M0.06,-0.044L0.06,-0.656C0.06,-0.668 0.064,-0.678 0.073,-0.687C0.082,-0.696 0.092,-0.7 0.104,-0.7L0.374,-0.7C0.437,-0.7 0.497,-0.684 0.553,-0.653C0.608,-0.621 0.653,-0.578 0.686,-0.525C0.719,-0.471 0.735,-0.413 0.735,-0.35C0.735,-0.287 0.718,-0.229 0.685,-0.176C0.652,-0.122 0.607,-0.079 0.551,-0.048C0.495,-0.016 0.435,-0 0.372,-0L0.104,-0C0.092,-0 0.082,-0.004 0.073,-0.013C0.064,-0.022 0.06,-0.032 0.06,-0.044ZM0.376,-0.215C0.398,-0.215 0.419,-0.221 0.438,-0.234C0.456,-0.247 0.472,-0.264 0.484,-0.287C0.495,-0.309 0.501,-0.333 0.501,-0.36C0.501,-0.386 0.495,-0.41 0.484,-0.432C0.473,-0.454 0.458,-0.472 0.439,-0.485C0.42,-0.498 0.399,-0.504 0.377,-0.504L0.284,-0.504C0.279,-0.504 0.276,-0.502 0.273,-0.499C0.27,-0.496 0.268,-0.491 0.268,-0.486L0.268,-0.233C0.268,-0.228 0.27,-0.223 0.273,-0.22C0.276,-0.217 0.279,-0.215 0.284,-0.215L0.376,-0.215Z" style="fill:rgb(24,131,204);fill-rule:nonzero;"/>
            </g>
            <g transform="matrix(1004.52,0,0,1004.52,838.229,935.543)">
                <path d="M0.033,-0.04C0.033,-0.051 0.035,-0.063 0.039,-0.074C0.042,-0.085 0.044,-0.091 0.045,-0.092L0.267,-0.655C0.273,-0.669 0.282,-0.68 0.294,-0.688C0.305,-0.695 0.319,-0.699 0.335,-0.7L0.479,-0.7C0.496,-0.699 0.511,-0.695 0.522,-0.686C0.533,-0.677 0.541,-0.667 0.545,-0.655L0.769,-0.092C0.77,-0.089 0.772,-0.082 0.775,-0.072C0.778,-0.061 0.78,-0.051 0.78,-0.042C0.78,-0.018 0.767,-0.004 0.74,-0L0.603,-0C0.589,-0 0.577,-0.003 0.568,-0.008C0.558,-0.012 0.552,-0.02 0.549,-0.029L0.518,-0.129L0.295,-0.129L0.264,-0.029C0.261,-0.02 0.255,-0.012 0.246,-0.008C0.237,-0.003 0.225,-0 0.211,-0L0.072,-0C0.046,-0.004 0.033,-0.017 0.033,-0.04ZM0.325,-0.298L0.482,-0.298L0.403,-0.533L0.325,-0.298Z" style="fill:rgb(221,76,151);fill-rule:nonzero;"/>
            </g>
            <g transform="matrix(1004.52,0,0,1004.52,1653.9,935.543)">
                <path d="M0.272,-0.064L0.024,-0.652C0.023,-0.655 0.022,-0.658 0.022,-0.663C0.022,-0.672 0.025,-0.68 0.03,-0.687C0.035,-0.694 0.042,-0.698 0.049,-0.698L0.242,-0.698C0.247,-0.698 0.252,-0.696 0.257,-0.693C0.261,-0.69 0.264,-0.686 0.266,-0.681L0.452,-0.259L0.631,-0.682C0.633,-0.687 0.636,-0.691 0.641,-0.694C0.645,-0.697 0.65,-0.698 0.655,-0.698L0.848,-0.698C0.855,-0.698 0.861,-0.694 0.866,-0.687C0.871,-0.68 0.874,-0.672 0.874,-0.663C0.874,-0.658 0.873,-0.655 0.872,-0.652L0.621,-0.055C0.616,-0.043 0.608,-0.031 0.599,-0.02C0.589,-0.009 0.578,-0.003 0.565,-0.002L0.329,-0.002C0.316,-0.003 0.305,-0.011 0.294,-0.025C0.283,-0.039 0.276,-0.052 0.272,-0.064Z" style="fill:rgb(24,131,204);fill-rule:nonzero;"/>
            </g>
            <g transform="matrix(1004.52,0,0,1004.52,2553.94,935.543)">
                <path d="M0.278,-0.521L0.278,-0.44L0.56,-0.44C0.571,-0.44 0.58,-0.436 0.589,-0.428C0.597,-0.419 0.601,-0.409 0.601,-0.396L0.601,-0.309C0.601,-0.298 0.597,-0.288 0.589,-0.279C0.58,-0.27 0.571,-0.265 0.56,-0.265L0.278,-0.265L0.278,-0.176L0.574,-0.176C0.585,-0.176 0.595,-0.172 0.604,-0.164C0.612,-0.155 0.616,-0.144 0.616,-0.131L0.616,-0.045C0.616,-0.033 0.612,-0.023 0.604,-0.014C0.595,-0.005 0.585,-0 0.574,-0L0.102,-0C0.091,-0 0.081,-0.005 0.073,-0.014C0.064,-0.023 0.06,-0.033 0.06,-0.045L0.06,-0.652C0.06,-0.665 0.064,-0.675 0.073,-0.684C0.081,-0.692 0.091,-0.696 0.102,-0.696L0.574,-0.696C0.585,-0.696 0.595,-0.692 0.604,-0.684C0.612,-0.675 0.616,-0.665 0.616,-0.652L0.616,-0.565C0.616,-0.554 0.612,-0.544 0.603,-0.535C0.594,-0.526 0.585,-0.521 0.574,-0.521L0.278,-0.521Z" style="fill:rgb(24,131,204);fill-rule:nonzero;"/>
            </g>
        </g>
    </g>
</svg>
